<svg width="22" height="40" viewBox="0 0 22 40" fill="none" xmlns="http://www.w3.org/2000/svg">
<path d="M0.373091 39.6642C0.593013 39.8775 0.892151 39.9983 1.2049 40C1.51826 40.0027 1.81941 39.8814 2.03671 39.6642L21.6521 20.8125C21.8747 20.6015 22 20.3137 22 20.0131C22 19.7126 21.8747 19.4248 21.6521 19.2137L2.03671 0.358449C1.81882 0.134548 1.51563 0.00517022 1.19673 0.000152135C0.877578 -0.0048668 0.570322 0.114476 0.344569 0.331403C0.119128 0.548058 -0.0053357 0.843618 0.000175544 1.15007C0.00539808 1.45651 0.140021 1.74789 0.373001 1.95732L19.1565 20.0131L0.373001 38.0647C0.151334 38.2763 0.0268626 38.5641 0.0268626 38.8644C0.0268626 39.1644 0.151334 39.4521 0.373001 39.6637L0.373091 39.6642Z" fill="#F06A47"/>
</svg>
